<svg width="495" height="499" viewBox="0 0 495 499" fill="none" xmlns="http://www.w3.org/2000/svg">
<path d="M245 5.5V71C245 73.7614 242.761 76 240 76H207.5C204.739 76 202.5 78.2386 202.5 81V168C202.5 170.761 204.739 173 207.5 173H240C242.761 173 245 175.239 245 178V242C245 244.761 242.761 247 240 247H5C2.23858 247 0 244.761 0 242V5.5C0 2.73858 2.23857 0.5 5 0.5H240C242.761 0.5 245 2.73858 245 5.5Z" fill="white"/>
<path d="M490 0H257C254.239 0 252 2.23858 252 5V242C252 244.761 254.239 247 257 247H323C325.761 247 328 244.761 328 242V219.5C328 216.739 330.239 214.5 333 214.5H410.76C412.467 214.5 414.056 215.371 414.974 216.809L432.776 244.691C433.694 246.129 435.283 247 436.99 247H488.689C491.913 247 494.294 243.994 493.556 240.856L466.944 127.602C466.206 124.464 468.587 121.459 471.811 121.459H490C492.761 121.459 495 119.22 495 116.459V5C495 2.23858 492.761 0 490 0Z" fill="white"/>
<path d="M0 494V261C0 258.239 2.23858 256 5 256H79.5C82.2614 256 84.5 258.239 84.5 261V283C84.5 285.761 86.7386 288 89.5 288H159C161.761 288 164 285.761 164 283V261C164 258.239 166.239 256 169 256H240C242.761 256 245 258.239 245 261V494C245 496.761 242.761 499 240 499H5C2.23858 499 0 496.761 0 494Z" fill="white"/>
<path fill-rule="evenodd" clip-rule="evenodd" d="M253 261V492C253 494.761 255.239 497 258 497H470.885C472.211 497 473.483 496.473 474.421 495.536L492.536 477.421C493.473 476.483 494 475.211 494 473.885V275.878C494 274.394 493.341 272.987 492.201 272.037L474.347 257.159C473.448 256.41 472.316 256 471.146 256H258C255.239 256 253 258.239 253 261ZM417 333C414.239 333 412 335.239 412 338V416C412 418.761 414.239 421 417 421H460C462.761 421 465 418.761 465 416V338C465 335.239 462.761 333 460 333H417Z" fill="white"/>
</svg>
